<?xml version="1.0" encoding="UTF-8"?>
<svg id="Layer_1" xmlns="http://www.w3.org/2000/svg" version="1.1" viewBox="0 0 24 34.8">
  <!-- Generator: Adobe Illustrator 29.0.0, SVG Export Plug-In . SVG Version: 2.1.0 Build 186)  -->
  <defs>
    <style>
      .st0 {
        fill: #fff;
        stroke: #fff;
        stroke-miterlimit: 10;
        stroke-width: .5px;
      }
    </style>
  </defs>
  <path class="st0" d="M12.1,27.8c-2.9,0-5.2-2.3-5.2-5.2v-6.1c0-2.9,2.3-5.2,5.2-5.2s5.2,2.3,5.2,5.2v6.1c0,2.9-2.3,5.2-5.2,5.2ZM12.1,12.3c-2.3,0-4.2,1.9-4.2,4.2v6.1c0,2.3,1.9,4.2,4.2,4.2s4.2-1.9,4.2-4.2v-6.1c0-2.3-1.9-4.2-4.2-4.2Z"/>
  <path class="st0" d="M12.1,17.6c-.3,0-.6-.3-.6-.6v-1.8c0-.3.3-.6.6-.6s.6.3.6.6v1.8c0,.3-.3.6-.6.6Z"/>
  <path class="st0" d="M12.1,34.3c-.1,0-.3,0-.4,0l-3.4-2.7c-.3-.2-.3-.6,0-.8.2-.3.6-.3.8,0l3,2.4,3-2.4c.3-.2.6-.2.8,0,.2.3.2.6,0,.8l-3.4,2.7c-.1,0-.2,0-.4,0Z"/>
  <g>
    <path class="st0" d="M4.9,2.3c-.1-.1-.3-.2-.6-.2s-.3,0-.4,0c-.1,0-.2.1-.3.2,0,0-.1.2-.1.3s0,.2.2.3.3.2.5.2l.7.2c.4,0,.7.2.9.4.2.2.3.5.3.8s0,.5-.2.7c-.1.2-.4.4-.6.5-.3.1-.6.2-1,.2s-.7,0-.9-.2c-.3-.1-.5-.3-.6-.5s-.3-.4-.3-.7h.9c0,.2.1.4.3.5.2.1.4.2.6.2s.4,0,.5,0c.1,0,.3-.1.3-.2,0,0,.1-.2.1-.3s0-.3-.2-.4c-.1,0-.3-.2-.5-.2l-.7-.2c-.4,0-.7-.2-.9-.5s-.3-.5-.3-.8c0-.3,0-.5.2-.7.1-.2.4-.4.6-.5.3-.1.6-.2.9-.2s.6,0,.9.2c.2.1.4.3.6.5.1.2.2.4.3.7h-.9c0-.2-.1-.3-.3-.4Z"/>
    <path class="st0" d="M7.7,5.8c-.3-.2-.6-.5-.7-.8s-.3-.8-.3-1.2,0-.9.3-1.2c.2-.4.4-.6.7-.8.3-.2.7-.3,1.1-.3s.7,0,.9.2c.3.1.5.3.7.5.2.2.3.5.3.8h-.9c0-.1,0-.3-.2-.4,0-.1-.2-.2-.3-.3-.1,0-.3-.1-.5-.1s-.5,0-.6.2c-.2.1-.3.3-.4.5-.1.2-.2.5-.2.8s0,.6.2.8.2.4.4.6c.2.1.4.2.7.2s.3,0,.5,0c.1,0,.3-.1.3-.3s.2-.3.2-.4h.9c0,.3-.1.6-.3.8-.2.2-.4.4-.6.5-.3.1-.6.2-.9.2s-.8-.1-1.1-.3Z"/>
    <path class="st0" d="M11.3,1.5h.9v.7h0c0-.2.2-.4.4-.6.2-.1.4-.2.7-.2s.3,0,.4,0v.9s-.1,0-.2,0c0,0-.2,0-.3,0-.2,0-.4,0-.5.1s-.3.2-.4.4c0,.2-.1.3-.1.5v2.8h-.9V1.5Z"/>
    <path class="st0" d="M14.9,5.8c-.3-.2-.6-.5-.7-.8-.2-.4-.3-.8-.3-1.2s0-.9.3-1.2c.2-.4.4-.6.7-.8.3-.2.7-.3,1.1-.3s.8,0,1.1.3.6.5.7.8c.2.4.3.8.3,1.2s0,.9-.3,1.2c-.2.4-.4.6-.7.8-.3.2-.7.3-1.1.3s-.8,0-1.1-.3ZM16.7,5.2c.2-.1.3-.3.4-.6,0-.2.1-.5.1-.8s0-.6-.1-.8-.2-.4-.4-.6-.4-.2-.7-.2-.5,0-.7.2-.3.3-.4.6c0,.2-.1.5-.1.8s0,.6.1.8c0,.2.2.4.4.6.2.1.4.2.7.2s.5,0,.7-.2Z"/>
    <path class="st0" d="M19.7,6h-.9V0h.9v6Z"/>
    <path class="st0" d="M21.5,6h-.9V0h.9v6Z"/>
  </g>
</svg>